# xmcd CD database file
#
# Track frame offsets:
#	150
#	8046
#	19898
#	32005
#	42079
#	52823
#	68789
#	82907
#	96605
#	107667
#	119213
#	133527
#	140756
#	145010
#	164268
#	175190
#
# Disc length: 2514 seconds
#
# Revision: 0
# Processed by: cddbd v1.5.2PL0 Copyright (c) Steve Scherf et al.
# Submitted via: CDex 1.51
#
DISCID=d809d010
DTITLE=Bended Band - Dirty Way To Play
DYEAR=2004
DGENRE=Blues
TTITLE0=GOOD REASON
TTITLE1=WHEN I'M DRINK
TTITLE2=FROM CHICAGO TO NEW ORLEANS
TTITLE3=MAYBE TOMORROW
TTITLE4=LOAD MY GUN
TTITLE5=WHISTLE FOR YOUR MONEY
TTITLE6=ARE YOU READY TO STOP MY WAY ?
TTITLE7=OH BABY, BABY
TTITLE8=I WANT TO WISH SOMETHING MORE
TTITLE9='NOT - BUT' BLUES
TTITLE10=OLD - FASHIONED BLUES
TTITLE11=DIRTY BLUES
TTITLE12=BLUES "DON'T DO"
TTITLE13=DON'T FIGHT WITH ME
TTITLE14=HOMELESS DOG
TTITLE15=TENTH LITRE OF BEER
EXTD=YEAR: 2004
EXTT0=
EXTT1=
EXTT2=
EXTT3=
EXTT4=
EXTT5=
EXTT6=
EXTT7=
EXTT8=
EXTT9=
EXTT10=
EXTT11=
EXTT12=
EXTT13=
EXTT14=
EXTT15=
PLAYORDER=
